PathFileType	4	(X/Y/Z)	Run_400 02
DataRate	CameraRate	NumFrames	NumMarkers	Units	OrigDataRate	OrigDataStartFrame	OrigNumFrames
100	100	7	42	mm	100	94	128
Frame#	Time	RASI			LPSI			RPSI			RTH1			RTH2			RTH3			LTH1			LTH2			LTH3			RTB1			RTB2			RTB3			LTB1			LTB2			LTB3			RCAL			RTOE			RMT5			LCAL			LTOE			LMT5			LACR			RACR			CLAV			C7			RUA1			RUA2			RUA3			RLEL			RMEL			LUA2			LUA3			LLEL			LMEL			RFAsuperior			RFAradius			RFAulna			LFAsuperior			LFAradius			LFAulna			LUA1			LASI			
		X1	Y1	Z1	X2	Y2	Z2	X3	Y3	Z3	X4	Y4	Z4	X5	Y5	Z5	X6	Y6	Z6	X7	Y7	Z7	X8	Y8	Z8	X9	Y9	Z9	X10	Y10	Z10	X11	Y11	Z11	X12	Y12	Z12	X13	Y13	Z13	X14	Y14	Z14	X15	Y15	Z15	X16	Y16	Z16	X17	Y17	Z17	X18	Y18	Z18	X19	Y19	Z19	X20	Y20	Z20	X21	Y21	Z21	X22	Y22	Z22	X23	Y23	Z23	X24	Y24	Z24	X25	Y25	Z25	X26	Y26	Z26	X27	Y27	Z27	X28	Y28	Z28	X29	Y29	Z29	X30	Y30	Z30	X31	Y31	Z31	X32	Y32	Z32	X33	Y33	Z33	X34	Y34	Z34	X35	Y35	Z35	X36	Y36	Z36	X37	Y37	Z37	X38	Y38	Z38	X39	Y39	Z39	X40	Y40	Z40	X41	Y41	Z41	X42	Y42	Z42	

79	1.43	1172.002348	950.056833	-210.110532	1029.478194	997.637141	-407.483673	1012.909436	1004.909819	-314.481561	1150.367715	814.698067	-143.47184	1229.957913	742.5752230000001	-151.825799	1233.961698	597.932668	-174.455026	1117.896318	772.6234040000001	-511.559245	1150.140216	640.710923	-486.752874	1056.490627	536.906594	-486.660675	1309.270675	351.348066	-258.183686	1241.048271	255.479671	-220.816357	1244.685377	185.460404	-290.300411	877.505228	406.958601	-420.59082	827.061852	453.006838	-465.961695	745.22532	450.809497	-416.727532	1101.842583	105.594943	-300.171051	1336.414673	76.357677	-301.011919	1313.96615	56.330321	-224.587257	652.596007	590.901326	-404.024096	516.563013	329.816316	-371.420747	553.28576	397.570634	-473.325389	1263.094015	1468.650137	-462.145133	1206.369978	1421.708878	-122.825479	1272.721534	1380.208247	-261.200749	1171.063245	1487.904086	-299.808556	1121.570133	1299.625389	-48.293482	1052.526084	1310.061086	-52.29717	1048.912183	1237.315741	-35.032864	997.09521	1177.317638	-14.020612	966.05959	1180.608286	-102.018714	1116.821043	1334.323874	-561.680817	1147.925935	1258.655758	-596.332001	1122.726715	1198.278786	-622.3263459999999	1066.579368	1188.812056	-550.156286	1077.878619	1143.059816	-25.500665	1221.313256	1094.162128	-105.365024	1191.232507	1033.242806	-81.449191	1189.689028	1145.040934	-589.590274	1302.266215	1089.196559	-464.460478	1288.599276	1027.117686	-498.584595	1204.95745	1369.485796	-555.776392	1203.516207	925.594459	-456.263691	
80	1.44	1170.920346	947.866352	-208.942602	1027.326585	994.1107960000001	-407.050276	1011.352082	1002.090378	-315.425291	1150.18981	808.3325	-143.12221	1225.693556	731.215901	-150.429207	1223.986544	588.575531	-177.014945	1117.9108	769.421478	-511.838242	1160.448148	638.400449	-487.92452	1074.156917	530.589258	-487.99327	1289.059246	341.510774	-259.481704	1214.494612	250.542988	-221.346843	1212.150241	180.844446	-290.753988	903.784908	401.541279	-418.606832	853.696448	446.561363	-465.136012	772.240825	446.273529	-415.51151	1063.514153	106.899355	-300.263248	1298.192532	74.44794	-300.611709	1275.164627	54.277947	-223.753056	677.01893	588.281888	-406.692558	545.787114	326.219164	-367.422447	584.353654	389.974415	-471.006341	1260.658673	1463.0569	-462.462165	1208.691446	1414.678921	-121.169708	1273.682572	1375.028049	-261.514797	1172.712695	1485.186184	-297.807976	1132.276977	1284.122306	-49.260968	1062.161826	1293.02125	-46.019902	1061.417743	1219.410336	-32.960347	1014.769795	1156.640518	-10.473462	976.5908480000001	1158.724779	-95.370667	1108.199025	1331.570494	-556.606074	1135.654154	1254.968752	-592.38468	1108.040263	1195.508834	-618.875231	1054.608482	1185.834008	-544.345963	1097.209364	1126.848428	-25.618925	1237.903909	1081.799603	-106.916722	1209.581109	1019.874359	-81.571533	1175.081963	1139.296771	-589.634235	1288.419782	1070.589946	-473.869826	1269.641938	1011.10879	-509.561929	1198.426296	1364.245046	-554.519749	1199.848349	922.605054	-456.867408	
81	1.45	1170.805044	947.452386	-206.552683	1024.942917	992.6567690000001	-405.115678	1010.82932	1001.285321	-314.267827	1150.616006	800.94482	-143.817349	1220.173832	718.496523	-150.664832	1212.212604	578.0191150000001	-180.026557	1116.711729	767.806604	-512.070369	1171.326317	637.511349	-489.183802	1093.327037	526.275503	-489.405849	1265.347897	329.905829	-260.519289	1185.699429	244.331325	-222.407328	1178.406684	176.342957	-291.852285	931.7674060000001	396.531268	-416.753302	881.3243220000001	439.939755	-464.291134	800.0587829999999	440.358911	-414.394551	1025.255019	108.266091	-300.347333	1259.863502	72.737415	-300.562427	1236.293083	52.653841	-223.321775	700.0817039999999	582.6741	-410.100845	577.979645	318.314592	-361.075947	615.7109390000001	378.273489	-467.298438	1256.883361	1459.756133	-462.601787	1212.085549	1409.672178	-120.240622	1274.632287	1371.683112	-262.026384	1173.273271	1482.455586	-296.076611	1142.770152	1274.370021	-50.716544	1072.131888	1280.104867	-43.303951	1074.069057	1206.675098	-32.152999	1032.528339	1140.70638	-9.743080000000001	986.99368	1141.906286	-91.442527	1099.279339	1332.318229	-551.336212	1123.046807	1255.310912	-589.112628	1093.13996	1196.608378	-615.961496	1041.471585	1186.37822	-539.394244	1116.851388	1116.341619	-28.452163	1255.124097	1075.128822	-110.060324	1228.921521	1012.156151	-83.55133499999999	1159.763434	1137.326272	-590.564042	1272.978605	1057.450743	-482.954137	1248.917193	1000.617219	-520.254779	1191.114989	1362.05551	-553.29779	1196.579437	921.258484	-458.401722	
82	1.46	1171.523932	947.594667	-204.220595	1022.234169	992.806607	-402.000905	1011.057906	1001.625591	-311.217718	1149.948719	794.3560649999999	-144.587402	1213.590151	707.876278	-151.68956	1200.236383	568.752477	-181.945014	1114.89646	767.1274969999999	-512.143856	1182.608645	638.799666	-490.603683	1113.470148	524.1205179999999	-490.601556	1239.436568	319.306135	-261.592348	1155.96897	238.983485	-223.486444	1144.03924	173.262214	-292.748173	960.755089	392.620865	-415.098172	909.258496	433.784495	-463.299832	827.984074	433.513356	-413.369291	987.2220600000001	110.377754	-300.032466	1221.280388	71.589136	-300.970195	1197.33543	52.383423	-223.347082	721.621954	574.14123	-412.96155	613.39457	307.245458	-354.393327	647.197772	363.721509	-463.333956	1251.590703	1458.937071	-462.885414	1216.751834	1406.675286	-119.660938	1275.776113	1370.136866	-262.843056	1172.862489	1479.793086	-294.253642	1151.887541	1269.586129	-51.526659	1081.29943	1271.130308	-43.426286	1086.269839	1198.375598	-32.759638	1048.514353	1130.080356	-11.239783	998.539612	1130.800714	-91.1155	1089.270332	1336.203832	-546.305503	1109.653387	1259.51251	-586.821776	1077.532743	1201.759364	-613.780081	1028.092869	1190.945636	-535.591412	1134.193912	1110.569878	-32.27238	1271.776505	1075.087904	-114.528712	1248.340637	1011.01167	-87.662875	1142.645958	1138.671716	-592.763268	1256.637516	1050.95762	-491.850481	1227.361961	996.466154	-530.426163	1181.919929	1363.224791	-552.3954639999999	1193.499555	921.179279	-460.441733	
83	1.47	1172.87347	947.336565	-203.246149	1019.562986	993.942111	-398.520443	1011.670284	1002.489193	-307.385389	1147.446971	789.878	-145.005714	1206.269872	700.821912	-152.768222	1187.656319	561.818244	-182.508772	1113.438875	767.475266	-512.258135	1194.096741	643.145808	-492.124745	1134.13707	525.032157	-491.439115	1212.09141	311.198163	-262.73697	1125.489253	235.413503	-224.152189	1109.167048	171.623788	-292.763057	990.190723	390.32198	-413.341734	937.100187	428.46072	-461.97704	855.710271	426.131009	-411.986834	949.3197740000001	113.650208	-299.17993	1182.347742	70.74146399999999	-301.374269	1158.059329	52.708798	-223.466673	741.715751	562.837566	-414.08005	651.667165	294.263715	-349.753535	679.442348	347.249303	-460.188869	1245.22451	1460.341503	-463.368472	1222.310196	1405.726007	-119.215445	1277.094935	1370.235324	-264.109614	1172.229967	1478.385762	-292.174347	1159.484876	1268.062607	-51.687165	1089.223634	1265.633561	-44.818365	1097.468635	1193.551854	-34.562221	1061.861736	1124.039758	-14.139421	1012.221852	1124.47657	-94.386088	1078.055718	1342.655662	-541.5817929999999	1095.358182	1266.917306	-585.471184	1060.878994	1210.365728	-612.346665	1015.128258	1199.368171	-532.860819	1148.124577	1108.458813	-35.917641	1286.902192	1081.513267	-119.961741	1267.02708	1016.272946	-93.677109	1123.621202	1143.343789	-595.804569	1240.045686	1051.376585	-500.513293	1206.130185	998.663267	-539.222366	1170.644923	1367.678032	-551.800207	1190.631401	922.139468	-462.255676	
84	1.48	1174.591394	946.714154	-203.76137	1017.64035	995.883613	-395.529833	1012.456291	1004.056346	-303.956132	1143.751043	787.843479	-145.493521	1198.640512	696.6708599999999	-153.71653	1173.383881	557.121972	-182.285081	1113.203318	769.494158	-512.64643	1205.53769	650.9306790000001	-493.584674	1154.820861	529.868112	-491.831539	1183.5106	305.487542	-263.666686	1093.975635	233.582278	-224.28353	1073.738827	171.085336	-292.085738	1019.610081	389.694375	-411.29911	964.658236	424.238114	-460.306488	883.278601	418.482995	-409.884772	911.491708	118.282186	-297.941223	1143.056145	69.826821	-301.550433	1118.296193	52.788352	-223.499331	760.533597	548.931374	-412.696648	691.936631	279.000809	-348.650595	713.309484	329.488159	-458.55943	1238.491763	1463.500566	-463.915781	1228.125476	1406.898222	-119.04814	1278.413311	1371.780421	-265.925191	1172.109634	1479.27287	-290.010898	1166.335523	1268.666959	-52.01748	1096.249858	1263.2689	-46.381184	1107.404738	1191.725285	-36.933798	1073.150676	1121.348256	-17.704184	1027.299017	1121.477662	-99.832843	1066.321192	1351.21238	-536.8595790000001	1080.511932	1276.831835	-584.672599	1043.46535	1221.622582	-611.399694	1002.061516	1210.890709	-530.7422769999999	1159.64131	1109.643307	-39.413695	1300.160685	1093.301792	-126.022052	1284.55472	1026.872876	-100.967322	1103.857722	1151.831039	-598.729279	1223.619416	1057.877358	-508.532208	1186.137544	1006.338391	-545.915064	1158.068186	1374.990059	-551.21838	1188.395933	924.21099	-463.146101	
85	1.49	1176.523263	946.494233	-204.946812	1017.08638	998.921972	-393.449598	1013.486436	1006.865142	-301.45512	1140.029303	787.614197	-146.567648	1190.925679	694.024627	-154.53372	1157.06907	554.218253	-181.883511	1114.595835	773.687797	-513.3954189999999	1216.659412	661.8303969999999	-494.825903	1174.899465	538.5595	-491.744284	1153.768065	301.550716	-264.044125	1061.452727	233.28854	-223.952237	1037.97469	171.673264	-291.336459	1048.604752	390.456687	-409.162292	991.760364	421.34593	-458.43283	910.867674	410.644805	-407.244573	873.969011	124.414128	-296.485014	1103.549701	68.78054299999999	-301.64273	1078.175515	52.595121	-223.568599	778.372985	532.477477	-408.717048	733.5467609999999	259.692547	-350.535143	749.317471	310.948371	-458.596502	1231.973952	1468.024499	-464.399094	1233.711332	1410.160152	-119.472761	1279.57434	1374.678768	-268.277334	1172.655305	1482.4667	-288.142421	1173.269517	1271.083904	-53.15976	1103.026323	1263.687852	-48.043661	1116.276736	1192.674847	-39.256921	1083.658476	1121.059311	-21.388005	1041.7767	1120.830425	-105.352554	1055.036282	1361.519049	-531.8211690000001	1065.69262	1288.838223	-583.934198	1026.099101	1235.008603	-610.4507170000001	987.977451	1224.516903	-528.6435770000001	1170.531323	1114.028784	-43.316384	1311.696294	1108.933391	-132.492445	1300.818292	1041.402129	-108.902549	1084.881604	1164.293038	-600.728395	1207.595747	1068.901607	-515.438923	1167.738407	1018.10847	-550.603472	1145.366143	1384.584132	-550.263045	1187.297392	927.6376780000001	-462.909285	
